HIERARCHY
ROOT Hips
{
	OFFSET 0.000000 71.427986 0.000000
	CHANNELS 6 Xposition Yposition Zposition Xrotation Yrotation Zrotation
	JOINT Pelvis
	{
		OFFSET 0.000000 0.000000 0.000000
		CHANNELS 3 Xrotation Yrotation Zrotation
		JOINT LeftUpLeg
		{
			OFFSET 6.797100 -2.508499 -1.318700
			CHANNELS 3 Xrotation Yrotation Zrotation
			JOINT LeftLeg
			{
				OFFSET 0.069008 -29.241863 0.690200
				CHANNELS 3 Xrotation Yrotation Zrotation
				JOINT LeftFoot
				{
					OFFSET -0.069008 -29.568123 -0.266800
					CHANNELS 3 Xrotation Yrotation Zrotation
					JOINT LeftToeBase
					{
						OFFSET 3.145500 -8.631000 16.059900
						CHANNELS 3 Xrotation Yrotation Zrotation
						End Site
						{
							OFFSET 0.000000 18.501587 0.000000
						}
					}
				}
			}
			JOINT Left_ShortSleeve
			{
				OFFSET 0.265923 -10.480953 1.153800
				CHANNELS 3 Xrotation Yrotation Zrotation
				End Site
				{
					OFFSET 1.725763 19.823879 0.000000
				}
			}
		}
		JOINT RightUpLeg
		{
			OFFSET -6.797100 -2.508499 -1.318700
			CHANNELS 3 Xrotation Yrotation Zrotation
			JOINT RightLeg
			{
				OFFSET -0.082453 -29.241932 0.688000
				CHANNELS 3 Xrotation Yrotation Zrotation
				JOINT RightFoot
				{
					OFFSET 0.082453 -29.568058 -0.264600
					CHANNELS 3 Xrotation Yrotation Zrotation
					JOINT RightToeBase
					{
						OFFSET -3.115300 -8.682800 16.113400
						CHANNELS 3 Xrotation Yrotation Zrotation
						End Site
						{
							OFFSET 0.000000 18.567114 0.000000
						}
					}
				}
			}
			JOINT Right_ShortSleeve
			{
				OFFSET -0.265923 -10.480953 1.153800
				CHANNELS 3 Xrotation Yrotation Zrotation
				End Site
				{
					OFFSET -1.725766 19.823910 0.000000
				}
			}
		}
	}
	JOINT Spine
	{
		OFFSET 0.000000 13.368103 0.470500
		CHANNELS 3 Xrotation Yrotation Zrotation
		JOINT Spine1
		{
			OFFSET 0.147000 13.837402 0.538800
			CHANNELS 3 Xrotation Yrotation Zrotation
			JOINT Spine2
			{
				OFFSET 0.168000 16.242897 -1.435500
				CHANNELS 3 Xrotation Yrotation Zrotation
				JOINT Neck
				{
					OFFSET 0.217200 18.631500 -1.679100
					CHANNELS 3 Xrotation Yrotation Zrotation
					JOINT Head
					{
						OFFSET 0.000000 6.599396 1.385900
						CHANNELS 3 Xrotation Yrotation Zrotation
						JOINT Hat
						{
							OFFSET -0.532200 27.220596 -10.096100
							CHANNELS 3 Xrotation Yrotation Zrotation
							End Site
							{
								OFFSET 0.000000 22.029861 0.000000
							}
						}
						JOINT HairD
						{
							OFFSET -10.777400 17.437393 -1.325900
							CHANNELS 3 Xrotation Yrotation Zrotation
							JOINT HairD1
							{
								OFFSET -3.290299 -11.051193 1.062200
								CHANNELS 3 Xrotation Yrotation Zrotation
								End Site
								{
									OFFSET 0.000000 11.579437 0.000000
								}
							}
						}
						JOINT HairB
						{
							OFFSET -10.777400 17.437393 1.467900
							CHANNELS 3 Xrotation Yrotation Zrotation
							JOINT HairB1
							{
								OFFSET -1.561200 -12.956299 3.590200
								CHANNELS 3 Xrotation Yrotation Zrotation
								End Site
								{
									OFFSET 0.000000 13.534866 0.000000
								}
							}
						}
						JOINT HairA
						{
							OFFSET 9.713100 17.437393 1.467900
							CHANNELS 3 Xrotation Yrotation Zrotation
							JOINT HairA1
							{
								OFFSET 1.561200 -12.956299 3.590200
								CHANNELS 3 Xrotation Yrotation Zrotation
								End Site
								{
									OFFSET 0.000000 13.534866 0.000000
								}
							}
						}
						JOINT HairC
						{
							OFFSET 9.713100 17.437393 -1.325900
							CHANNELS 3 Xrotation Yrotation Zrotation
							JOINT HairC1
							{
								OFFSET 3.290300 -11.051193 1.062200
								CHANNELS 3 Xrotation Yrotation Zrotation
								End Site
								{
									OFFSET 0.000000 11.579437 0.000000
								}
							}
						}
					}
				}
				JOINT LeftShoulder
				{
					OFFSET 5.101800 15.108002 -2.763700
					CHANNELS 3 Xrotation Yrotation Zrotation
					JOINT LeftArm
					{
						OFFSET 9.825497 2.506317 -1.597400
						CHANNELS 3 Xrotation Yrotation Zrotation
						JOINT LeftForeArm
						{
							OFFSET 21.966244 0.000000 0.000000
							CHANNELS 3 Xrotation Yrotation Zrotation
							JOINT LeftHand
							{
								OFFSET 33.879036 0.000000 0.000000
								CHANNELS 3 Xrotation Yrotation Zrotation
								JOINT LeftHandThumb1
								{
									OFFSET 6.715286 -2.359680 3.363841
									CHANNELS 3 Xrotation Yrotation Zrotation
									JOINT LeftHandThumb2
									{
										OFFSET 2.507072 -1.447464 1.447461
										CHANNELS 3 Xrotation Yrotation Zrotation
										JOINT LeftHandThumb3
										{
											OFFSET 2.898338 -1.673355 1.673357
											CHANNELS 3 Xrotation Yrotation Zrotation
											End Site
											{
												OFFSET -0.295959 3.727692 -0.131651
											}
										}
									}
								}
								JOINT LeftHandIndex1
								{
									OFFSET 14.190811 -0.254547 3.840278
									CHANNELS 3 Xrotation Yrotation Zrotation
									JOINT LeftHandIndex2
									{
										OFFSET 3.551727 0.000000 -0.000000
										CHANNELS 3 Xrotation Yrotation Zrotation
										JOINT LeftHandIndex3
										{
											OFFSET 2.894196 0.000000 0.000000
											CHANNELS 3 Xrotation Yrotation Zrotation
											End Site
											{
												OFFSET -1.000603 2.690872 0.366626
											}
										}
									}
								}
								JOINT LeftHandMiddle1
								{
									OFFSET 13.776489 0.000000 0.000000
									CHANNELS 3 Xrotation Yrotation Zrotation
									JOINT LeftHandMiddle2
									{
										OFFSET 3.438232 0.000000 0.000000
										CHANNELS 3 Xrotation Yrotation Zrotation
										JOINT LeftHandMiddle3
										{
											OFFSET 3.691551 0.000000 0.000000
											CHANNELS 3 Xrotation Yrotation Zrotation
											End Site
											{
												OFFSET -1.082298 3.499527 0.457670
											}
										}
									}
								}
								JOINT LeftHandRing1
								{
									OFFSET 13.966164 -0.268127 -3.067488
									CHANNELS 3 Xrotation Yrotation Zrotation
									JOINT LeftHandRing2
									{
										OFFSET 3.162567 0.000000 0.000000
										CHANNELS 3 Xrotation Yrotation Zrotation
										JOINT LeftHandRing3
										{
											OFFSET 3.324348 0.000000 0.000000
											CHANNELS 3 Xrotation Yrotation Zrotation
											End Site
											{
												OFFSET -0.861900 3.184998 0.405154
											}
										}
									}
								}
								JOINT LeftHandPinky1
								{
									OFFSET 13.131393 -0.168503 -5.746925
									CHANNELS 3 Xrotation Yrotation Zrotation
									JOINT LeftHandPinky2
									{
										OFFSET 2.849182 0.000000 0.000000
										CHANNELS 3 Xrotation Yrotation Zrotation
										JOINT LeftHandPinky3
										{
											OFFSET 2.805038 0.000000 0.000000
											CHANNELS 3 Xrotation Yrotation Zrotation
											End Site
											{
												OFFSET -0.882500 2.642609 0.325652
											}
										}
									}
								}
							}
							JOINT Left_Sleeve
							{
								OFFSET 6.592125 -0.646545 0.805568
								CHANNELS 3 Xrotation Yrotation Zrotation
								End Site
								{
									OFFSET -0.000179 20.275787 -0.000000
								}
							}
						}
					}
				}
				JOINT RightShoulder
				{
					OFFSET -5.731700 15.108002 -2.763700
					CHANNELS 3 Xrotation Yrotation Zrotation
					JOINT RightArm
					{
						OFFSET -9.825497 2.506317 -1.597400
						CHANNELS 3 Xrotation Yrotation Zrotation
						JOINT RightForeArm
						{
							OFFSET -21.966242 0.000000 0.000000
							CHANNELS 3 Xrotation Yrotation Zrotation
							JOINT RightHand
							{
								OFFSET -33.879032 0.000000 0.000000
								CHANNELS 3 Xrotation Yrotation Zrotation
								JOINT RightHandThumb1
								{
									OFFSET -6.715286 -2.359680 3.363841
									CHANNELS 3 Xrotation Yrotation Zrotation
									JOINT RightHandThumb2
									{
										OFFSET -2.507072 -1.447464 1.447461
										CHANNELS 3 Xrotation Yrotation Zrotation
										JOINT RightHandThumb3
										{
											OFFSET -2.898338 -1.673355 1.673357
											CHANNELS 3 Xrotation Yrotation Zrotation
											End Site
											{
												OFFSET 0.295959 3.727692 -0.131651
											}
										}
									}
								}
								JOINT RightHandIndex1
								{
									OFFSET -14.190811 -0.254547 3.840278
									CHANNELS 3 Xrotation Yrotation Zrotation
									JOINT RightHandIndex2
									{
										OFFSET -3.551727 0.000000 -0.000000
										CHANNELS 3 Xrotation Yrotation Zrotation
										JOINT RightHandIndex3
										{
											OFFSET -2.894196 0.000000 0.000000
											CHANNELS 3 Xrotation Yrotation Zrotation
											End Site
											{
												OFFSET 1.000603 2.690872 0.366626
											}
										}
									}
								}
								JOINT RightHandMiddle1
								{
									OFFSET -13.776489 0.000000 0.000000
									CHANNELS 3 Xrotation Yrotation Zrotation
									JOINT RightHandMiddle2
									{
										OFFSET -3.438232 0.000000 0.000000
										CHANNELS 3 Xrotation Yrotation Zrotation
										JOINT RightHandMiddle3
										{
											OFFSET -3.691551 0.000000 0.000000
											CHANNELS 3 Xrotation Yrotation Zrotation
											End Site
											{
												OFFSET 1.082298 3.499527 0.457670
											}
										}
									}
								}
								JOINT RightHandRing1
								{
									OFFSET -13.966164 -0.268127 -3.067488
									CHANNELS 3 Xrotation Yrotation Zrotation
									JOINT RightHandRing2
									{
										OFFSET -3.162567 0.000000 0.000000
										CHANNELS 3 Xrotation Yrotation Zrotation
										JOINT RightHandRing3
										{
											OFFSET -3.324348 0.000000 0.000000
											CHANNELS 3 Xrotation Yrotation Zrotation
											End Site
											{
												OFFSET 0.861900 3.184998 0.405154
											}
										}
									}
								}
								JOINT RightHandPinky1
								{
									OFFSET -13.131393 -0.168503 -5.746925
									CHANNELS 3 Xrotation Yrotation Zrotation
									JOINT RightHandPinky2
									{
										OFFSET -2.849182 0.000000 0.000000
										CHANNELS 3 Xrotation Yrotation Zrotation
										JOINT RightHandPinky3
										{
											OFFSET -2.805038 0.000000 0.000000
											CHANNELS 3 Xrotation Yrotation Zrotation
											End Site
											{
												OFFSET 0.882500 2.642609 0.325652
											}
										}
									}
								}
							}
							JOINT Right_Sleeve
							{
								OFFSET -6.592125 -0.646545 0.805568
								CHANNELS 3 Xrotation Yrotation Zrotation
								End Site
								{
									OFFSET 0.000179 20.275787 -0.000000
								}
							}
						}
					}
				}
				JOINT Bind_Right_JacketString
				{
					OFFSET -3.534800 11.969597 7.200700
					CHANNELS 3 Xrotation Yrotation Zrotation
					JOINT Bind_Right_JacketString1
					{
						OFFSET -0.319900 -6.102600 2.794100
						CHANNELS 3 Xrotation Yrotation Zrotation
						End Site
						{
							OFFSET 0.000000 6.719452 0.000000
						}
					}
				}
				JOINT Bind_Left_JacketString
				{
					OFFSET 2.904800 11.969597 7.200700
					CHANNELS 3 Xrotation Yrotation Zrotation
					JOINT Bind_Left_JacketString1
					{
						OFFSET 0.364800 -5.904503 3.186800
						CHANNELS 3 Xrotation Yrotation Zrotation
						End Site
						{
							OFFSET 0.000000 6.719513 0.000000
						}
					}
				}
				JOINT HairE
				{
					OFFSET 5.915200 17.612701 -11.592200
					CHANNELS 3 Xrotation Yrotation Zrotation
					JOINT HairE1
					{
						OFFSET 0.289200 -7.171898 -1.284500
						CHANNELS 3 Xrotation Yrotation Zrotation
						End Site
						{
							OFFSET 0.000000 7.291756 0.000000
						}
					}
				}
				JOINT HairF
				{
					OFFSET -0.864800 17.612701 -11.592200
					CHANNELS 3 Xrotation Yrotation Zrotation
					JOINT HairF1
					{
						OFFSET 0.000000 -14.087097 -2.127501
						CHANNELS 3 Xrotation Yrotation Zrotation
						End Site
						{
							OFFSET 0.000000 14.246841 0.000000
						}
					}
				}
				JOINT HairG
				{
					OFFSET -8.087700 17.612701 -11.592200
					CHANNELS 3 Xrotation Yrotation Zrotation
					JOINT HairG1
					{
						OFFSET -0.293600 -6.081398 -0.910100
						CHANNELS 3 Xrotation Yrotation Zrotation
						End Site
						{
							OFFSET 0.000000 6.156120 0.000000
						}
					}
				}
			}
		}
	}
	JOINT Pouch
	{
		OFFSET 0.000000 4.394501 10.847300
		CHANNELS 3 Xrotation Yrotation Zrotation
		End Site
		{
			OFFSET 0.000000 21.880577 0.000000
		}
	}
	JOINT Bag
	{
		OFFSET -13.229000 4.813004 -0.593300
		CHANNELS 3 Xrotation Yrotation Zrotation
		End Site
		{
			OFFSET 0.000000 21.880577 0.000000
		}
	}
	JOINT OccupyGuyFacialAnim_Joint
	{
		OFFSET 1.000000 -70.206398 -1.655000
		CHANNELS 3 Xrotation Yrotation Zrotation
		End Site
		{
			OFFSET 0.000000 21.880577 0.000000
		}
	}
}
MOTION
Frames: 4
Frame Time: 0.033333
-0.262023 70.850761 3.766081 -4.562402 -4.045494 -2.014263 0.000000 0.000000 0.000000 0.138694 9.534746 6.463548 14.926998 -8.325254 3.729345 -12.251181 -4.425204 -6.591787 -0.000000 -0.000000 0.000000 -0.000000 -0.000000 -0.000000 -3.776049 -5.603153 -1.857376 17.982305 9.977041 -2.785899 -10.724273 12.917687 -0.024328 -0.000000 -0.000000 -0.000000 -0.000000 -0.000000 -0.000000 3.476828 4.060359 0.164141 13.245368 1.132884 -0.190248 13.249327 1.114288 -0.201151 -0.441361 -1.078895 0.112897 7.996127 -6.372651 4.736135 0.000005 0.000001 -0.000000 0.000005 0.000001 -0.000000 0.000005 0.000001 -0.000000 0.000005 0.000001 -0.000000 0.000002 0.000000 -0.000000 0.000005 0.000001 -0.000000 0.000002 0.000000 -0.000000 0.000005 0.000001 -0.000000 0.000005 0.000001 -0.000000 2.098047 -11.144850 -18.290576 -16.071066 -11.309120 -59.196123 -0.000005 -16.790533 -0.000021 0.878930 2.584532 -9.544368 -0.266446 4.548706 10.792680 14.081226 6.218279 10.788910 0.000002 -0.000000 0.000002 0.204042 3.652474 -14.856473 0.530649 2.438281 -24.552513 0.000000 0.000000 -0.000000 1.303319 7.387712 -16.322366 0.454978 2.265471 -22.708586 0.000002 0.000001 -0.000004 1.739699 8.580054 -17.229186 1.308143 3.691267 -39.016738 -0.000003 0.000003 -0.000005 0.758060 5.168018 -23.679911 0.713244 2.803365 -28.544161 -0.000000 0.000001 0.000003 0.000001 -0.000001 0.000001 -0.024365 9.239818 20.529937 -11.948885 4.897621 55.782677 0.000002 16.613204 0.000013 -0.944173 -1.028354 7.220605 -6.439875 1.666977 -14.227985 17.750571 -20.831109 7.630750 0.000001 0.000000 -0.000000 -1.315355 3.015274 14.433197 0.617906 -2.320004 29.823782 -0.000000 -0.000002 0.000002 -1.183830 0.855428 17.866361 1.041093 -2.936768 39.031983 0.000000 -0.000001 -0.000006 -0.099492 -2.403333 15.770225 1.477864 -3.404873 46.915900 -0.000000 -0.000000 -0.000000 -12.813797 -11.028495 13.057125 1.001209 -2.886965 38.247048 -0.000001 0.000001 -0.000003 0.000001 -0.000000 0.000001 -0.000001 -0.000000 -0.000000 -0.000001 0.000000 -0.000000 -0.000001 -0.000000 -0.000000 -0.000001 -0.000000 -0.000000 -0.000001 -0.000000 -0.000000 -0.000001 0.000000 -0.000000 -0.000001 -0.000000 -0.000000 -0.000001 -0.000000 -0.000000 -0.000001 -0.000000 -0.000000 -0.000001 0.000000 -0.000000 0.000000 0.000000 0.000000 0.000000 0.000000 0.000000 0.000000 0.000000 0.000000 
-0.273283 70.855141 3.695629 -4.635856 -4.055195 -2.027009 0.000000 -0.000000 0.000000 0.122079 9.554954 6.504109 14.971942 -8.329162 3.721705 -12.242524 -4.424591 -6.606918 -0.000000 -0.000000 0.000000 0.000000 -0.000000 -0.000000 -3.737551 -5.607931 -1.850904 17.905119 9.989649 -2.751706 -10.610380 12.951007 -0.011297 -0.000000 0.000000 -0.000000 0.000001 -0.000001 -0.000001 3.654732 4.023231 0.148431 13.293210 1.127384 -0.188630 13.297139 1.110049 -0.203258 -0.413252 -1.089407 0.125218 7.993930 -6.445860 4.854810 0.000001 -0.000000 -0.000000 0.000001 -0.000000 -0.000000 0.000001 -0.000000 0.000000 0.000001 -0.000000 0.000000 0.000001 -0.000000 0.000000 0.000001 -0.000000 0.000000 0.000001 -0.000000 0.000000 0.000001 -0.000000 -0.000000 0.000001 -0.000000 -0.000000 2.029786 -11.604643 -17.990404 -15.860123 -10.961532 -59.302646 0.000002 -17.253013 0.000015 0.129302 2.216238 -9.357225 -0.266446 4.548705 10.792679 14.081227 6.218280 10.788910 0.000001 -0.000001 -0.000000 0.204040 3.652474 -14.856471 0.530649 2.438282 -24.552519 0.000001 0.000000 0.000005 1.303318 7.387712 -16.322369 0.454975 2.265468 -22.708588 0.000001 -0.000000 -0.000003 1.739700 8.580053 -17.229185 1.308146 3.691269 -39.016742 -0.000001 0.000003 0.000001 0.758056 5.168019 -23.679911 0.713245 2.803366 -28.544160 0.000000 -0.000001 0.000003 0.000002 0.000000 0.000000 -0.046870 9.605974 20.168299 -11.535074 4.673425 56.108273 -0.000004 17.023191 -0.000004 -1.072001 -1.020503 7.220947 -6.439876 1.666977 -14.227989 17.750567 -20.831112 7.630746 -0.000000 0.000000 0.000001 -1.315355 3.015274 14.433197 0.617907 -2.320004 29.823785 -0.000001 -0.000000 0.000002 -1.183828 0.855427 17.866361 1.041090 -2.936766 39.031987 0.000000 -0.000001 -0.000001 -0.099490 -2.403334 15.770224 1.477861 -3.404874 46.915900 -0.000002 -0.000002 -0.000003 -12.813794 -11.028495 13.057125 1.001210 -2.886965 38.247048 0.000001 0.000000 -0.000001 -0.000000 0.000000 -0.000000 0.000000 -0.000000 -0.000000 0.000000 0.000000 -0.000000 0.000000 -0.000000 -0.000000 0.000000 -0.000000 -0.000000 0.000000 -0.000000 -0.000000 0.000000 0.000000 -0.000000 0.000000 -0.000000 -0.000000 0.000000 -0.000000 -0.000000 0.000000 -0.000000 -0.000000 0.000000 0.000000 -0.000000 0.000000 -0.000000 0.000000 0.000000 -0.000000 0.000000 0.000000 -0.000000 0.000000 
-0.280672 70.867645 3.620959 -4.671639 -4.057588 -2.037673 -0.000000 -0.000000 -0.000000 0.132229 9.576361 6.521399 14.885192 -8.372045 3.708280 -12.158912 -4.431558 -6.592233 -0.000000 -0.000000 -0.000000 -0.000001 0.000000 -0.000000 -3.681431 -5.613499 -1.851962 17.714608 9.985607 -2.709942 -10.444520 12.969483 0.018880 0.000000 0.000001 0.000000 0.000002 0.000001 -0.000000 3.798535 3.986397 0.136489 13.331073 1.123312 -0.188128 13.334953 1.104436 -0.207219 -0.378671 -1.092255 0.136102 8.036203 -6.474750 4.927870 0.000004 -0.000000 0.000000 0.000004 -0.000000 0.000000 0.000004 -0.000000 0.000000 0.000004 -0.000000 0.000000 0.000004 -0.000000 0.000000 0.000004 -0.000000 0.000000 0.000004 -0.000000 0.000000 0.000004 -0.000000 0.000000 0.000004 -0.000000 0.000000 1.978582 -11.973246 -17.707807 -15.607930 -10.729288 -59.354597 -0.000005 -17.650390 -0.000009 -0.435822 2.019873 -9.364551 -0.266445 4.548706 10.792682 14.081227 6.218278 10.788910 0.000002 -0.000000 0.000000 0.204040 3.652475 -14.856473 0.530650 2.438283 -24.552522 0.000004 0.000001 0.000005 1.303319 7.387711 -16.322364 0.454979 2.265470 -22.708586 -0.000000 0.000000 -0.000001 1.739697 8.580054 -17.229188 1.308147 3.691268 -39.016735 -0.000002 0.000001 -0.000003 0.758056 5.168018 -23.679909 0.713243 2.803367 -28.544161 0.000000 -0.000002 0.000003 -0.000001 0.000000 -0.000000 -0.062066 9.898920 19.868221 -11.083987 4.602605 56.348227 -0.000005 17.401782 0.000015 -1.013096 -1.085189 7.329035 -6.439873 1.666978 -14.227986 17.750565 -20.831112 7.630751 -0.000001 -0.000001 -0.000000 -1.315354 3.015274 14.433197 0.617905 -2.320003 29.823789 -0.000001 -0.000001 0.000000 -1.183827 0.855429 17.866361 1.041091 -2.936767 39.031987 -0.000001 0.000000 0.000001 -0.099493 -2.403334 15.770224 1.477866 -3.404874 46.915900 -0.000002 -0.000001 -0.000001 -12.813795 -11.028496 13.057125 1.001209 -2.886965 38.247051 -0.000001 0.000001 -0.000003 0.000002 -0.000000 -0.000000 0.000002 0.000000 0.000000 0.000003 0.000000 -0.000000 0.000002 0.000000 0.000000 0.000002 0.000000 0.000000 0.000002 0.000000 0.000000 0.000003 0.000000 -0.000000 0.000002 0.000000 0.000000 0.000002 0.000000 0.000000 0.000002 0.000000 0.000000 0.000003 0.000000 -0.000000 -0.000000 -0.000000 -0.000000 -0.000000 -0.000000 -0.000000 -0.000000 -0.000000 -0.000000 
-0.284734 70.883324 3.543789 -4.644528 -4.076327 -2.050360 0.000000 -0.000000 -0.000000 0.091978 9.585198 6.538808 14.767974 -8.378898 3.702154 -12.061926 -4.438447 -6.602210 0.000000 0.000001 0.000000 0.000000 0.000000 -0.000000 -3.661135 -5.604122 -1.839141 17.449467 9.992360 -2.672597 -10.232727 12.986411 0.066281 -0.000000 -0.000000 -0.000000 0.000000 -0.000001 -0.000000 3.871652 3.984931 0.134035 13.354815 1.123925 -0.190238 13.358659 1.103505 -0.210193 -0.339467 -1.091954 0.142659 8.111801 -6.489325 4.970039 -0.000001 0.000001 -0.000001 -0.000001 0.000001 -0.000001 -0.000001 0.000001 -0.000000 -0.000001 0.000001 -0.000000 -0.000001 0.000000 -0.000000 -0.000001 0.000001 -0.000000 -0.000001 0.000000 -0.000000 -0.000001 0.000001 -0.000001 -0.000001 0.000001 -0.000001 1.951109 -12.178809 -17.548837 -15.398392 -10.658269 -59.280660 -0.000003 -17.851550 0.000012 -0.605920 2.026431 -9.485725 -0.266449 4.548706 10.792682 14.081226 6.218279 10.788908 -0.000000 -0.000002 0.000000 0.204039 3.652474 -14.856473 0.530652 2.438282 -24.552522 -0.000000 0.000000 0.000002 1.303317 7.387711 -16.322366 0.454977 2.265470 -22.708586 0.000000 0.000001 -0.000001 1.739697 8.580053 -17.229185 1.308147 3.691271 -39.016735 -0.000000 0.000001 -0.000003 0.758056 5.168017 -23.679906 0.713246 2.803366 -28.544160 0.000001 0.000001 -0.000001 0.000001 0.000001 0.000000 -0.068492 10.054153 19.695332 -10.691974 4.631277 56.442453 -0.000007 17.653951 0.000022 -0.754150 -1.173430 7.468308 -6.439873 1.666978 -14.227986 17.750567 -20.831112 7.630748 0.000002 0.000000 0.000003 -1.315355 3.015275 14.433194 0.617901 -2.320003 29.823785 -0.000000 -0.000001 0.000005 -1.183825 0.855429 17.866361 1.041092 -2.936766 39.031987 0.000001 -0.000000 -0.000001 -0.099490 -2.403334 15.770222 1.477862 -3.404874 46.915900 0.000001 -0.000002 0.000001 -12.813793 -11.028496 13.057127 1.001210 -2.886966 38.247051 -0.000001 0.000000 -0.000001 0.000002 -0.000000 0.000001 0.000001 -0.000000 0.000000 0.000001 0.000000 -0.000000 0.000001 -0.000000 0.000000 0.000001 -0.000000 0.000000 0.000001 -0.000000 0.000000 0.000001 0.000000 -0.000000 0.000001 -0.000000 0.000000 0.000001 -0.000000 0.000000 0.000001 -0.000000 0.000000 0.000001 0.000000 -0.000000 0.000000 -0.000000 -0.000000 0.000000 -0.000000 -0.000000 0.000000 -0.000000 -0.000000 
